# xmcd
#
# Track frame offsets:
#       150
#       10507
#       21278
#       30999
#       39951
#       50458
#       59349
#       69012
#       80381
#       90663
#
# Disc length: 1334 seconds
#
# Revision: 1
# Processed by: cddbd v1.5.2PL0 Copyright (c) Steve Scherf et al.
# Submitted via: FreeDbEdit v0.1
#
DISCID=6505340a
DTITLE=Various Artist - World's Greatest Bluegrass Bands
DYEAR=1900
DGENRE=
TTITLE0=Bent Broken and Blue - The Osborne Brothers
TTITLE1=Good Times Are Past and Gone - Lester Flatt
TTITLE2=Back Up and Push - Benny Martin
TTITLE3=Bury Me Beneath the Willow - Ralph Smith
TTITLE4=I Wonder Where You Are Tonight - Mike Wiseman
TTITLE5=Shout and Shine - Carl Story
TTITLE6=Crossin the Rockies - Josh Graves and Bobby Smith
TTITLE7=Rainy Day People - Mac Wiseman
TTITLE8=Jesse James - Jones Brothers
TTITLE9=Soldier's Joy - Stonemans
EXTD=
EXTT0=
EXTT1=
EXTT2=
EXTT3=
EXTT4=
EXTT5=
EXTT6=
EXTT7=
EXTT8=
EXTT9=
PLAYORDER=
